<mxfile host="app.diagrams.net" agent="Mozilla/5.0 (Windows NT 10.0; Win64; x64) AppleWebKit/537.36 (KHTML, like Gecko) Chrome/138.0.0.0 Safari/537.36" version="28.0.5">
  <diagram name="Page-1" id="iwAsw85ld0rtPUS75imh">
    <mxGraphModel dx="1042" dy="527" grid="1" gridSize="10" guides="1" tooltips="1" connect="1" arrows="1" fold="1" page="1" pageScale="1" pageWidth="1000" pageHeight="1000" math="0" shadow="0">
      <root>
        <mxCell id="0" />
        <mxCell id="1" parent="0" />
        <mxCell id="oe1G1PaN5FAki_fNwKMK-1" value="" style="rounded=0;whiteSpace=wrap;html=1;strokeColor=none;fillColor=light-dark(#6B4C3B,#6B4C3B);" parent="1" vertex="1">
          <mxGeometry x="200" y="400" width="600" height="200" as="geometry" />
        </mxCell>
        <mxCell id="oe1G1PaN5FAki_fNwKMK-2" value="&lt;p style=&quot;&quot; data-pm-slice=&quot;1 1 []&quot;&gt;&lt;span style=&quot;color: light-dark(rgb(245, 240, 220), rgb(245, 240, 220)); font-family: &amp;quot;Comic Sans MS&amp;quot;; background-color: transparent;&quot;&gt;&lt;font style=&quot;font-size: 60px;&quot;&gt;Move Your Token!&lt;/font&gt;&lt;/span&gt;&lt;/p&gt;" style="rounded=0;whiteSpace=wrap;html=1;fillColor=none;strokeColor=none;align=center;" parent="1" vertex="1">
          <mxGeometry x="280" y="500" width="500" height="90" as="geometry" />
        </mxCell>
        <mxCell id="Y-TXC_74rQ3mTslFlgD3-2" value="&lt;font style=&quot;font-size: 35px;&quot; face=&quot;Comic Sans MS&quot;&gt;Restart&lt;/font&gt;" style="rounded=1;whiteSpace=wrap;html=1;fillColor=light-dark(#D97A2B,#D97A2B);fontColor=light-dark(#F5F0DC,#F5F0DC);strokeColor=light-dark(#F5F0DC,#F5F0DC);strokeWidth=3;arcSize=50;" parent="1" vertex="1">
          <mxGeometry x="540" y="420" width="240" height="80" as="geometry" />
        </mxCell>
        <mxCell id="Y-TXC_74rQ3mTslFlgD3-3" value="&lt;span style=&quot;font-family: &amp;quot;Comic Sans MS&amp;quot;; text-align: justify;&quot;&gt;&lt;font style=&quot;color: light-dark(rgb(245, 240, 220), rgb(245, 240, 220)); font-size: 60px;&quot;&gt;Player B,&amp;nbsp;&lt;/font&gt;&lt;/span&gt;" style="rounded=0;whiteSpace=wrap;html=1;fillColor=none;strokeColor=none;" parent="1" vertex="1">
          <mxGeometry x="220" y="415" width="280" height="75" as="geometry" />
        </mxCell>
        <mxCell id="eMYquYINZT71QWSf7_Op-1" value="" style="shape=image;imageAspect=0;aspect=fixed;verticalLabelPosition=bottom;verticalAlign=top;image=data:image/png,iVBORw0KGgoAAAANSUhEUgAAADIAAAAyCAYAAAAeP4ixAAAAAXNSR0IArs4c6QAAB1h0RVh0bXhmaWxlACUzQ214ZmlsZSUyMGhvc3QlM0QlMjJhcHAuZGlhZ3JhbXMubmV0JTIyJTIwYWdlbnQlM0QlMjJNb3ppbGxhJTJGNS4wJTIwKFdpbmRvd3MlMjBOVCUyMDEwLjAlM0IlMjBXaW42NCUzQiUyMHg2NCklMjBBcHBsZVdlYktpdCUyRjUzNy4zNiUyMChLSFRNTCUyQyUyMGxpa2UlMjBHZWNrbyklMjBDaHJvbWUlMkYxMzguMC4wLjAlMjBTYWZhcmklMkY1MzcuMzYlMjIlMjB2ZXJzaW9uJTNEJTIyMjguMC41JTIyJTIwc2NhbGUlM0QlMjIxJTIyJTIwYm9yZGVyJTNEJTIyMCUyMiUzRSUwQSUyMCUyMCUzQ2RpYWdyYW0lMjBuYW1lJTNEJTIyUGFnZS0xJTIyJTIwaWQlM0QlMjJ4ZTFLeGxHNGNQY1VmYURyT0JZNiUyMiUzRSUwQSUyMCUyMCUyMCUyMCUzQ214R3JhcGhNb2RlbCUyMGR4JTNEJTIyMTA0MiUyMiUyMGR5JTNEJTIyNTI3JTIyJTIwZ3JpZCUzRCUyMjElMjIlMjBncmlkU2l6ZSUzRCUyMjEwJTIyJTIwZ3VpZGVzJTNEJTIyMSUyMiUyMHRvb2x0aXBzJTNEJTIyMSUyMiUyMGNvbm5lY3QlM0QlMjIxJTIyJTIwYXJyb3dzJTNEJTIyMSUyMiUyMGZvbGQlM0QlMjIxJTIyJTIwcGFnZSUzRCUyMjElMjIlMjBwYWdlU2NhbGUlM0QlMjIxJTIyJTIwcGFnZVdpZHRoJTNEJTIyMTAwMCUyMiUyMHBhZ2VIZWlnaHQlM0QlMjIxMDAwJTIyJTIwbWF0aCUzRCUyMjAlMjIlMjBzaGFkb3clM0QlMjIwJTIyJTNFJTBBJTIwJTIwJTIwJTIwJTIwJTIwJTNDcm9vdCUzRSUwQSUyMCUyMCUyMCUyMCUyMCUyMCUyMCUyMCUzQ214Q2VsbCUyMGlkJTNEJTIyMCUyMiUyMCUyRiUzRSUwQSUyMCUyMCUyMCUyMCUyMCUyMCUyMCUyMCUzQ214Q2VsbCUyMGlkJTNEJTIyMSUyMiUyMHBhcmVudCUzRCUyMjAlMjIlMjAlMkYlM0UlMEElMjAlMjAlMjAlMjAlMjAlMjAlMjAlMjAlM0NteENlbGwlMjBpZCUzRCUyMmotR2ZKR3d3MG5hRExaclk1eVhILTElMjIlMjB2YWx1ZSUzRCUyMiUyMiUyMHN0eWxlJTNEJTIyd2hpdGVTcGFjZSUzRHdyYXAlM0JodG1sJTNEMSUzQmFzcGVjdCUzRGZpeGVkJTNCc3Ryb2tlQ29sb3IlM0Rub25lJTNCZmlsbENvbG9yJTNEbm9uZSUzQiUyMiUyMHBhcmVudCUzRCUyMjElMjIlMjB2ZXJ0ZXglM0QlMjIxJTIyJTNFJTBBJTIwJTIwJTIwJTIwJTIwJTIwJTIwJTIwJTIwJTIwJTNDbXhHZW9tZXRyeSUyMHglM0QlMjI0NzUlMjIlMjB5JTNEJTIyNDc1JTIyJTIwd2lkdGglM0QlMjI1MCUyMiUyMGhlaWdodCUzRCUyMjUwJTIyJTIwYXMlM0QlMjJnZW9tZXRyeSUyMiUyMCUyRiUzRSUwQSUyMCUyMCUyMCUyMCUyMCUyMCUyMCUyMCUzQyUyRm14Q2VsbCUzRSUwQSUyMCUyMCUyMCUyMCUyMCUyMCUyMCUyMCUzQ214Q2VsbCUyMGlkJTNEJTIyai1HZkpHd3cwbmFETFpyWTV5WEgtMiUyMiUyMHZhbHVlJTNEJTIyJTIyJTIwc3R5bGUlM0QlMjJlbGxpcHNlJTNCd2hpdGVTcGFjZSUzRHdyYXAlM0JodG1sJTNEMSUzQmFzcGVjdCUzRGZpeGVkJTNCZmlsbENvbG9yJTNEbGlnaHQtZGFyayglMjMxQUJDOUMlMkMlMjMxQUJDOUMpJTNCc3Ryb2tlQ29sb3IlM0RkZWZhdWx0JTNCc3Ryb2tlV2lkdGglM0Q1JTNCJTIyJTIwcGFyZW50JTNEJTIyMSUyMiUyMHZlcnRleCUzRCUyMjElMjIlM0UlMEElMjAlMjAlMjAlMjAlMjAlMjAlMjAlMjAlMjAlMjAlM0NteEdlb21ldHJ5JTIweCUzRCUyMjQ3OSUyMiUyMHklM0QlMjI0NzklMjIlMjB3aWR0aCUzRCUyMjQyJTIyJTIwaGVpZ2h0JTNEJTIyNDIlMjIlMjBhcyUzRCUyMmdlb21ldHJ5JTIyJTIwJTJGJTNFJTBBJTIwJTIwJTIwJTIwJTIwJTIwJTIwJTIwJTNDJTJGbXhDZWxsJTNFJTBBJTIwJTIwJTIwJTIwJTIwJTIwJTNDJTJGcm9vdCUzRSUwQSUyMCUyMCUyMCUyMCUzQyUyRm14R3JhcGhNb2RlbCUzRSUwQSUyMCUyMCUzQyUyRmRpYWdyYW0lM0UlMEElM0MlMkZteGZpbGUlM0UlMEGtPMpPAAADpUlEQVRoQ92aS0iVQRTH/6dIexmJWJqGPehmKFFaZGhk2SaMFurCQCHovbCgImkRCC3CqKBa9IZAIRfqIpI2aUZKRmkRSmb0kDRNESN7adTEXL4bc+d+r3u9fjnfwN3c78yZ+X0z58yZcz6CSxq5hANhBWGMZQLgv9UAPAASAcwFEAFgDMBnAD0AugA8A9BMRM3heJnjBtEmXwQgD8C8ECY1AKAWQOV4oEIGYYzlAjgMYHMIkzfq0gDgHBHVBaszaBDG2DIApwDkBztYEPI1AI4T0Wu7fYICYYztBXBR2/N2xwhVjttUCRFdtaPANghj7DyAg2ZKx/78Rv1QDx4P96H96xDefx/B0K+f4P9HTJmKmGnTsWhmFFJnx2BddDxyYhK9/1u0C0R0yErIFghj7BaAQiNlz78MoqK3E7X9b7yTtts4RF7cUhQnJGPVnFizblVEtMNMwBLEDKL7xwjOvG31Aoy3caCjS9KRNCPKSJUpjCmI2Xaq7O3Eia6WoFbACpav0ElPBooSko1EDbeZIYhm2Ff0NJZ1teDahw6reYX8fM/CFJR5Moz679NzALogmott1/NOR14+RNVHfjBPbCtc4MHZFRv0BuHeLFV2zUYg1XrnxESvhDxrk5WpIaICUT4ARDux78hKuU2UdoYlLApqKcuTM41sZpsYAeiB1MthB/dO2S01YTVsuzTcATRm5Ot5swYiyvHp8QPRAsAmeZCSjsawuFi7k5fluGu+mJKt1z3LF2jKIJcA7Bd78MMu98ntUOcQtn51a7frHZqXiegAH0QG+SSH4k55KStiAy82QETz/UD0thUPN5Y/qPgvtiGDcVt5tbFYLzbzbq9/K8IYOwagXFRwd7Abu1/cs3pZjj2/vnILtsYmyeOVEtFpESQgMHT63LB6IwbnijcGE0FaAaSJygra6vBouN9Kv2PP10fHoTqNX0z9WhsRpYsgAYa+pqkKfaPfHJuo1UDxkbPwNCvgNuE1eBFkVI6tFt+/OSkM3QfIDf7dpp0y7xgRRYogTJZIqL9h9ZIcf96bsytgTOLN9y9jzDUr4hobcY3Xcs054pqTnSef/UJ4JWMt7r0YY+pHvxqIa+4jAduLAyp3Q9RWRf07uwbCw0v1sygajPp5LQ2EF3PUzzRqMLyoo3buV4iIDYs7ymTjBRjDIo8y9RE7MFxGiYqVnW3mk5n0NUQBRv2qrgCjfp1dvPUr/+WDnMJQ/lsUvTyQ0l8HOZ7YMhjwL3BuHVH02KzuAAAAAElFTkSuQmCC;" vertex="1" parent="1">
          <mxGeometry x="475" y="435" width="50" height="50" as="geometry" />
        </mxCell>
        <mxCell id="eMYquYINZT71QWSf7_Op-2" value="" style="shape=image;imageAspect=0;aspect=fixed;verticalLabelPosition=bottom;verticalAlign=top;image=data:image/png,iVBORw0KGgoAAAANSUhEUgAAADIAAAAyCAYAAAAeP4ixAAAAAXNSR0IArs4c6QAAB1h0RVh0bXhmaWxlACUzQ214ZmlsZSUyMGhvc3QlM0QlMjJhcHAuZGlhZ3JhbXMubmV0JTIyJTIwYWdlbnQlM0QlMjJNb3ppbGxhJTJGNS4wJTIwKFdpbmRvd3MlMjBOVCUyMDEwLjAlM0IlMjBXaW42NCUzQiUyMHg2NCklMjBBcHBsZVdlYktpdCUyRjUzNy4zNiUyMChLSFRNTCUyQyUyMGxpa2UlMjBHZWNrbyklMjBDaHJvbWUlMkYxMzguMC4wLjAlMjBTYWZhcmklMkY1MzcuMzYlMjIlMjB2ZXJzaW9uJTNEJTIyMjguMC41JTIyJTIwc2NhbGUlM0QlMjIxJTIyJTIwYm9yZGVyJTNEJTIyMCUyMiUzRSUwQSUyMCUyMCUzQ2RpYWdyYW0lMjBuYW1lJTNEJTIyUGFnZS0xJTIyJTIwaWQlM0QlMjJ4ZTFLeGxHNGNQY1VmYURyT0JZNiUyMiUzRSUwQSUyMCUyMCUyMCUyMCUzQ214R3JhcGhNb2RlbCUyMGR4JTNEJTIyMTA0MiUyMiUyMGR5JTNEJTIyNTI3JTIyJTIwZ3JpZCUzRCUyMjElMjIlMjBncmlkU2l6ZSUzRCUyMjEwJTIyJTIwZ3VpZGVzJTNEJTIyMSUyMiUyMHRvb2x0aXBzJTNEJTIyMSUyMiUyMGNvbm5lY3QlM0QlMjIxJTIyJTIwYXJyb3dzJTNEJTIyMSUyMiUyMGZvbGQlM0QlMjIxJTIyJTIwcGFnZSUzRCUyMjElMjIlMjBwYWdlU2NhbGUlM0QlMjIxJTIyJTIwcGFnZVdpZHRoJTNEJTIyMTAwMCUyMiUyMHBhZ2VIZWlnaHQlM0QlMjIxMDAwJTIyJTIwbWF0aCUzRCUyMjAlMjIlMjBzaGFkb3clM0QlMjIwJTIyJTNFJTBBJTIwJTIwJTIwJTIwJTIwJTIwJTNDcm9vdCUzRSUwQSUyMCUyMCUyMCUyMCUyMCUyMCUyMCUyMCUzQ214Q2VsbCUyMGlkJTNEJTIyMCUyMiUyMCUyRiUzRSUwQSUyMCUyMCUyMCUyMCUyMCUyMCUyMCUyMCUzQ214Q2VsbCUyMGlkJTNEJTIyMSUyMiUyMHBhcmVudCUzRCUyMjAlMjIlMjAlMkYlM0UlMEElMjAlMjAlMjAlMjAlMjAlMjAlMjAlMjAlM0NteENlbGwlMjBpZCUzRCUyMmotR2ZKR3d3MG5hRExaclk1eVhILTElMjIlMjB2YWx1ZSUzRCUyMiUyMiUyMHN0eWxlJTNEJTIyd2hpdGVTcGFjZSUzRHdyYXAlM0JodG1sJTNEMSUzQmFzcGVjdCUzRGZpeGVkJTNCc3Ryb2tlQ29sb3IlM0Rub25lJTNCZmlsbENvbG9yJTNEbm9uZSUzQiUyMiUyMHBhcmVudCUzRCUyMjElMjIlMjB2ZXJ0ZXglM0QlMjIxJTIyJTNFJTBBJTIwJTIwJTIwJTIwJTIwJTIwJTIwJTIwJTIwJTIwJTNDbXhHZW9tZXRyeSUyMHglM0QlMjI0NzUlMjIlMjB5JTNEJTIyNDc1JTIyJTIwd2lkdGglM0QlMjI1MCUyMiUyMGhlaWdodCUzRCUyMjUwJTIyJTIwYXMlM0QlMjJnZW9tZXRyeSUyMiUyMCUyRiUzRSUwQSUyMCUyMCUyMCUyMCUyMCUyMCUyMCUyMCUzQyUyRm14Q2VsbCUzRSUwQSUyMCUyMCUyMCUyMCUyMCUyMCUyMCUyMCUzQ214Q2VsbCUyMGlkJTNEJTIyai1HZkpHd3cwbmFETFpyWTV5WEgtMiUyMiUyMHZhbHVlJTNEJTIyJTIyJTIwc3R5bGUlM0QlMjJlbGxpcHNlJTNCd2hpdGVTcGFjZSUzRHdyYXAlM0JodG1sJTNEMSUzQmFzcGVjdCUzRGZpeGVkJTNCZmlsbENvbG9yJTNEbGlnaHQtZGFyayglMjMxQUJDOUMlMkMlMjMxQUJDOUMpJTNCc3Ryb2tlQ29sb3IlM0RkZWZhdWx0JTNCc3Ryb2tlV2lkdGglM0Q1JTNCJTIyJTIwcGFyZW50JTNEJTIyMSUyMiUyMHZlcnRleCUzRCUyMjElMjIlM0UlMEElMjAlMjAlMjAlMjAlMjAlMjAlMjAlMjAlMjAlMjAlM0NteEdlb21ldHJ5JTIweCUzRCUyMjQ3OSUyMiUyMHklM0QlMjI0NzklMjIlMjB3aWR0aCUzRCUyMjQyJTIyJTIwaGVpZ2h0JTNEJTIyNDIlMjIlMjBhcyUzRCUyMmdlb21ldHJ5JTIyJTIwJTJGJTNFJTBBJTIwJTIwJTIwJTIwJTIwJTIwJTIwJTIwJTNDJTJGbXhDZWxsJTNFJTBBJTIwJTIwJTIwJTIwJTIwJTIwJTNDJTJGcm9vdCUzRSUwQSUyMCUyMCUyMCUyMCUzQyUyRm14R3JhcGhNb2RlbCUzRSUwQSUyMCUyMCUzQyUyRmRpYWdyYW0lM0UlMEElM0MlMkZteGZpbGUlM0UlMEGtPMpPAAADpUlEQVRoQ92aS0iVQRTH/6dIexmJWJqGPehmKFFaZGhk2SaMFurCQCHovbCgImkRCC3CqKBa9IZAIRfqIpI2aUZKRmkRSmb0kDRNESN7adTEXL4bc+d+r3u9fjnfwN3c78yZ+X0z58yZcz6CSxq5hANhBWGMZQLgv9UAPAASAcwFEAFgDMBnAD0AugA8A9BMRM3heJnjBtEmXwQgD8C8ECY1AKAWQOV4oEIGYYzlAjgMYHMIkzfq0gDgHBHVBaszaBDG2DIApwDkBztYEPI1AI4T0Wu7fYICYYztBXBR2/N2xwhVjttUCRFdtaPANghj7DyAg2ZKx/78Rv1QDx4P96H96xDefx/B0K+f4P9HTJmKmGnTsWhmFFJnx2BddDxyYhK9/1u0C0R0yErIFghj7BaAQiNlz78MoqK3E7X9b7yTtts4RF7cUhQnJGPVnFizblVEtMNMwBLEDKL7xwjOvG31Aoy3caCjS9KRNCPKSJUpjCmI2Xaq7O3Eia6WoFbACpav0ElPBooSko1EDbeZIYhm2Ff0NJZ1teDahw6reYX8fM/CFJR5Moz679NzALogmott1/NOR14+RNVHfjBPbCtc4MHZFRv0BuHeLFV2zUYg1XrnxESvhDxrk5WpIaICUT4ARDux78hKuU2UdoYlLApqKcuTM41sZpsYAeiB1MthB/dO2S01YTVsuzTcATRm5Ot5swYiyvHp8QPRAsAmeZCSjsawuFi7k5fluGu+mJKt1z3LF2jKIJcA7Bd78MMu98ntUOcQtn51a7frHZqXiegAH0QG+SSH4k55KStiAy82QETz/UD0thUPN5Y/qPgvtiGDcVt5tbFYLzbzbq9/K8IYOwagXFRwd7Abu1/cs3pZjj2/vnILtsYmyeOVEtFpESQgMHT63LB6IwbnijcGE0FaAaSJygra6vBouN9Kv2PP10fHoTqNX0z9WhsRpYsgAYa+pqkKfaPfHJuo1UDxkbPwNCvgNuE1eBFkVI6tFt+/OSkM3QfIDf7dpp0y7xgRRYogTJZIqL9h9ZIcf96bsytgTOLN9y9jzDUr4hobcY3Xcs054pqTnSef/UJ4JWMt7r0YY+pHvxqIa+4jAduLAyp3Q9RWRf07uwbCw0v1sygajPp5LQ2EF3PUzzRqMLyoo3buV4iIDYs7ymTjBRjDIo8y9RE7MFxGiYqVnW3mk5n0NUQBRv2qrgCjfp1dvPUr/+WDnMJQ/lsUvTyQ0l8HOZ7YMhjwL3BuHVH02KzuAAAAAElFTkSuQmCC;" vertex="1" parent="1">
          <mxGeometry x="220" y="520" width="50" height="50" as="geometry" />
        </mxCell>
      </root>
    </mxGraphModel>
  </diagram>
</mxfile>
